<svg viewBox="0 0 200 200" xmlns="http://www.w3.org/2000/svg">
<path fill="#FF0066" d="M41.3,-70.5C51.2,-65.8,55.4,-50.1,63.5,-36.5C71.5,-22.9,83.5,-11.5,83.6,0.1C83.7,11.6,72.1,23.2,63.4,35.7C54.7,48.3,49,61.6,38.9,68.3C28.9,75,14.4,75,2.5,70.7C-9.4,66.3,-18.9,57.7,-26.3,49.4C-33.7,41.2,-39,33.4,-45,25.2C-50.9,17.1,-57.5,8.5,-61.6,-2.3C-65.6,-13.2,-67.1,-26.4,-60.7,-33.9C-54.4,-41.4,-40.1,-43.1,-28.7,-46.9C-17.3,-50.8,-8.6,-56.7,3.5,-62.8C15.7,-68.9,31.3,-75.2,41.3,-70.5Z" transform="translate(100 100)" />
</svg>